<?xml version="1.0" encoding="UTF-8" standalone="no"?>
<!-- Created with Inkscape (http://www.inkscape.org/) -->

<svg
   xmlns:dc="http://purl.org/dc/elements/1.1/"
   xmlns:cc="http://creativecommons.org/ns#"
   xmlns:rdf="http://www.w3.org/1999/02/22-rdf-syntax-ns#"
   xmlns:svg="http://www.w3.org/2000/svg"
   xmlns="http://www.w3.org/2000/svg"
   xmlns:sodipodi="http://sodipodi.sourceforge.net/DTD/sodipodi-0.dtd"
   xmlns:inkscape="http://www.inkscape.org/namespaces/inkscape"
   id="svg2"
   version="1.1"
   inkscape:version="0.48.4 r9939"
   width="25"
   height="25"
   xml:space="preserve"
   sodipodi:docname="briefcase.svg"><metadata
     id="metadata8"><rdf:RDF><cc:Work
         rdf:about=""><dc:format>image/svg+xml</dc:format><dc:type
           rdf:resource="http://purl.org/dc/dcmitype/StillImage" /><dc:title></dc:title></cc:Work></rdf:RDF></metadata><defs
     id="defs6"><clipPath
       clipPathUnits="userSpaceOnUse"
       id="clipPath16"><path
         d="M 0,96 96,96 96,0 0,0 0,96 z"
         id="path18"
         inkscape:connector-curvature="0" /></clipPath></defs><sodipodi:namedview
     pagecolor="#ffffff"
     bordercolor="#666666"
     borderopacity="1"
     objecttolerance="10"
     gridtolerance="10"
     guidetolerance="10"
     inkscape:pageopacity="0"
     inkscape:pageshadow="2"
     inkscape:window-width="1855"
     inkscape:window-height="1056"
     id="namedview4"
     showgrid="false"
     inkscape:zoom="16"
     inkscape:cx="-1.5135101"
     inkscape:cy="5.8911121"
     inkscape:window-x="65"
     inkscape:window-y="24"
     inkscape:window-maximized="1"
     inkscape:current-layer="g12" /><g
     id="g10"
     inkscape:groupmode="layer"
     inkscape:label="icon-Utilities"
     transform="matrix(1.25,0,0,-1.25,0,25)"><g
       id="g12"
       transform="matrix(0.21229098,0,0,0.21229098,-0.18996704,-0.18996704)"><g
         id="g14"
         clip-path="url(#clipPath16)"
         style="stroke:#727272;stroke-opacity:1;fill:none;fill-opacity:0"><g
           id="g20"
           transform="translate(23,48)"
           style="stroke:#727272;stroke-opacity:1;fill:none;fill-opacity:0"><path
             d="m 0,0 -11,0 c -4.42,0 -8,3.58 -8,8 l 0,12 c 0,4.42 3.58,8 8,8 l 72,0 c 4.42,0 8,-3.58 8,-8 L 69,8 C 69,3.58 65.42,0 61,0 L 50,0"
             style="fill:none;stroke:#727272;stroke-width:4;stroke-linecap:round;stroke-linejoin:round;stroke-miterlimit:10;stroke-opacity:1;stroke-dasharray:none;fill-opacity:0"
             id="path22"
             inkscape:connector-curvature="0" /></g><g
           id="g24"
           transform="translate(65,48)"
           style="stroke:#727272;stroke-opacity:1;fill:none;fill-opacity:0"><path
             d="M 0,0 -34,0"
             style="fill:none;stroke:#727272;stroke-width:4;stroke-linecap:round;stroke-linejoin:round;stroke-miterlimit:10;stroke-opacity:1;stroke-dasharray:none;fill-opacity:0"
             id="path26"
             inkscape:connector-curvature="0" /></g><g
           id="g28"
           transform="translate(32.21,77)"
           style="stroke:#727272;stroke-opacity:1;fill:none;fill-opacity:0"><path
             d="m 0,0 c -0.14,0.48 -0.21,0.98 -0.21,1.5 l 0,1 c 0,3.03 2.47,5.5 5.5,5.5 l 21,0 c 3.03,0 5.5,-2.47 5.5,-5.5 l 0,-1 C 31.79,0.98 31.72,0.48 31.58,0"
             style="fill:none;stroke:#727272;stroke-width:4;stroke-linecap:round;stroke-linejoin:round;stroke-miterlimit:10;stroke-opacity:1;stroke-dasharray:none;fill-opacity:0"
             id="path30"
             inkscape:connector-curvature="0" /></g><g
           id="g32"
           transform="translate(88.67,49.26)"
           style="stroke:#727272;stroke-opacity:1;fill:none;fill-opacity:0"><path
             d="m 0,0 c 0.22,-0.72 0.33,-1.47 0.33,-2.26 l 0,-28 c 0,-4.4 -3.6,-8 -8,-8 l -66,0 c -4.4,0 -8,3.6 -8,8 l 0,28 c 0,0.79 0.11,1.54 0.33,2.26"
             style="fill:none;stroke:#727272;stroke-width:4;stroke-linecap:round;stroke-linejoin:round;stroke-miterlimit:10;stroke-opacity:1;stroke-dasharray:none;fill-opacity:0"
             id="path34"
             inkscape:connector-curvature="0" /></g><g
           id="g36"
           transform="translate(28,41)"
           style="stroke:#727272;stroke-opacity:1;fill:none;fill-opacity:0"><path
             d="m 0,0 -2,0 c -1.657,0 -3,1.343 -3,3 l 0,8 c 0,1.657 1.343,3 3,3 l 2,0 c 1.657,0 3,-1.343 3,-3 L 3,3 C 3,1.343 1.657,0 0,0 z"
             style="fill:none;stroke:#727272;stroke-width:4;stroke-linecap:butt;stroke-linejoin:miter;stroke-miterlimit:10;stroke-opacity:1;stroke-dasharray:none;fill-opacity:0"
             id="path38"
             inkscape:connector-curvature="0" /></g><g
           id="g40"
           transform="translate(70,41)"
           style="stroke:#727272;stroke-opacity:1;fill:none;fill-opacity:0"><path
             d="m 0,0 -2,0 c -1.657,0 -3,1.343 -3,3 l 0,8 c 0,1.657 1.343,3 3,3 l 2,0 c 1.657,0 3,-1.343 3,-3 L 3,3 C 3,1.343 1.657,0 0,0 z"
             style="fill:none;stroke:#727272;stroke-width:4;stroke-linecap:butt;stroke-linejoin:miter;stroke-miterlimit:10;stroke-opacity:1;stroke-dasharray:none;fill-opacity:0"
             id="path42"
             inkscape:connector-curvature="0" /></g></g></g></g></svg>